<svg width="24" height="24" viewBox="0 0 24 24" fill="none" xmlns="http://www.w3.org/2000/svg">
<path d="M17.8561 4.44468H14.603C14.4927 3.83465 14.1717 3.28272 13.6959 2.88526C13.2202 2.4878 12.6199 2.27007 12 2.27007C11.3801 2.27007 10.7798 2.4878 10.3041 2.88526C9.82834 3.28272 9.50731 3.83465 9.39703 4.44468H6.23766C5.55568 4.44605 4.90203 4.71756 4.4198 5.19979C3.93757 5.68202 3.66605 6.33568 3.66469 7.01765V7.86797C3.66469 7.93777 3.67844 8.00689 3.70515 8.07139C3.73186 8.13588 3.77102 8.19448 3.82038 8.24384C3.86974 8.2932 3.92834 8.33235 3.99283 8.35907C4.05732 8.38578 4.12644 8.39953 4.19625 8.39953H5.38641L5.83688 20.962C5.84185 21.0996 5.89998 21.2298 5.99903 21.3254C6.09809 21.4209 6.23034 21.4743 6.36797 21.4744H17.7258C17.8634 21.4743 17.9957 21.4209 18.0947 21.3254C18.1938 21.2298 18.2519 21.0996 18.2569 20.962L18.7073 8.39953H19.8975C20.0385 8.39953 20.1737 8.34352 20.2734 8.24384C20.3731 8.14415 20.4291 8.00894 20.4291 7.86797V7.01765C20.4277 6.33568 20.1562 5.68202 19.674 5.19979C19.1917 4.71756 18.5381 4.44605 17.8561 4.44468ZM12 3.33234C12.3375 3.33274 12.6661 3.44083 12.9379 3.6409C13.2097 3.84096 13.4106 4.12255 13.5113 4.44468H10.4887C10.5894 4.12255 10.7903 3.84096 11.0621 3.6409C11.3339 3.44083 11.6625 3.33274 12 3.33234ZM17.213 20.4098H6.88078L6.45 8.39953H17.6438L17.213 20.4098ZM19.3659 7.3364H4.72781V7.01765C4.72831 6.61737 4.88754 6.23362 5.17058 5.95058C5.45363 5.66754 5.83737 5.50831 6.23766 5.50781H17.8561C18.2564 5.50831 18.6401 5.66754 18.9232 5.95058C19.2062 6.23362 19.3654 6.61737 19.3659 7.01765V7.3364Z" fill="white"/>
<path d="M11.9606 18.5344C12.1016 18.5344 12.2368 18.4784 12.3365 18.3787C12.4362 18.279 12.4922 18.1438 12.4922 18.0028V10.3233C12.4943 10.2522 12.4821 10.1814 12.4564 10.1151C12.4306 10.0488 12.3918 9.98829 12.3423 9.93725C12.2927 9.88621 12.2334 9.84563 12.1679 9.81792C12.1024 9.79021 12.032 9.77593 11.9609 9.77593C11.8897 9.77593 11.8193 9.79021 11.7538 9.81792C11.6883 9.84563 11.629 9.88621 11.5794 9.93725C11.5299 9.98829 11.4911 10.0488 11.4654 10.1151C11.4396 10.1814 11.4274 10.2522 11.4295 10.3233V18.0028C11.4295 18.1437 11.4855 18.2788 11.5851 18.3785C11.6846 18.4782 11.8197 18.5342 11.9606 18.5344Z" fill="white"/>
<path d="M14.618 18.5344C14.7589 18.5342 14.894 18.4782 14.9935 18.3785C15.0931 18.2788 15.1491 18.1437 15.1491 18.0028V10.3233C15.1512 10.2522 15.139 10.1814 15.1132 10.1151C15.0875 10.0488 15.0487 9.98829 14.9991 9.93725C14.9496 9.88621 14.8903 9.84563 14.8248 9.81792C14.7593 9.79021 14.6889 9.77593 14.6177 9.77593C14.5466 9.77593 14.4762 9.79021 14.4107 9.81792C14.3452 9.84563 14.2859 9.88621 14.2363 9.93725C14.1868 9.98829 14.148 10.0488 14.1222 10.1151C14.0965 10.1814 14.0843 10.2522 14.0864 10.3233V18.0028C14.0864 18.1438 14.1424 18.279 14.2421 18.3787C14.3418 18.4784 14.477 18.5344 14.618 18.5344Z" fill="white"/>
<path d="M9.34594 18.5344C9.48692 18.5344 9.62212 18.4784 9.72181 18.3787C9.8215 18.279 9.8775 18.1438 9.8775 18.0028V10.3233C9.8775 10.1823 9.8215 10.0471 9.72181 9.94741C9.62212 9.84772 9.48692 9.79172 9.34594 9.79172C9.20496 9.79172 9.06976 9.84772 8.97007 9.94741C8.87038 10.0471 8.81438 10.1823 8.81438 10.3233V18.0028C8.81438 18.1438 8.87038 18.279 8.97007 18.3787C9.06976 18.4784 9.20496 18.5344 9.34594 18.5344Z" fill="white"/>
</svg>
