<svg width="302" height="302" viewBox="0 0 302 302" fill="none" xmlns="http://www.w3.org/2000/svg">
<path fill-rule="evenodd" clip-rule="evenodd" d="M301.891 156.796C301.807 159.017 301.675 161.227 301.496 163.423L138.577 0.503694C140.773 0.324865 142.983 0.193025 145.204 0.109183L301.891 156.796ZM132.453 1.12776C134.052 0.93182 135.66 0.7609 137.275 0.615402L301.385 164.725C301.239 166.34 301.068 167.948 300.872 169.547L132.453 1.12776ZM294.45 198.282C293.874 200.03 293.267 201.764 292.629 203.483L98.5167 9.37061C100.236 8.73327 101.97 8.12634 103.718 7.55047L294.45 198.282ZM93.6637 11.2662C94.9299 10.7461 96.2048 10.2426 97.4881 9.75621L292.244 204.512C291.757 205.795 291.254 207.07 290.734 208.336L93.6637 11.2662ZM292.682 98.6602C293.949 102.088 295.095 105.574 296.115 109.114L192.886 5.88493C196.426 6.90482 199.912 8.05074 203.34 9.3175L292.682 98.6602ZM183.832 3.57931C186.216 4.10796 188.579 4.69298 190.919 5.3329L296.667 111.081C297.307 113.421 297.892 115.784 298.421 118.168L183.832 3.57931ZM287.723 215.176C286.978 216.76 286.207 218.329 285.409 219.883L82.117 16.5911C83.6706 15.7933 85.2399 15.0216 86.8242 14.2767L287.723 215.176ZM76.639 19.5488C78.1387 18.6987 79.6543 17.8734 81.1854 17.0736L284.926 220.815C284.127 222.346 283.301 223.861 282.451 225.361L76.639 19.5488ZM301.454 138.074C301.23 135.42 300.936 132.786 300.575 130.173L171.827 1.42456C169.214 1.06411 166.58 0.770501 163.926 0.545524L301.454 138.074ZM162.39 0.423095C159.941 0.240503 157.476 0.116299 154.997 0.0518693L301.948 147.003C301.884 144.524 301.759 142.059 301.577 139.61L162.39 0.423095ZM298.396 183.943C298.826 182.009 299.22 180.061 299.575 178.1L123.9 2.42512C121.939 2.78047 119.991 3.17369 118.057 3.604L298.396 183.943ZM116.904 3.86531C115.02 4.30021 113.149 4.77037 111.293 5.27507L296.725 190.707C297.23 188.851 297.7 186.98 298.135 185.096L116.904 3.86531ZM302 151C302 152.481 301.979 153.957 301.936 155.427L146.573 0.0636551C148.043 0.0213151 149.519 0 151 0C151.852 0 152.703 0.00706107 153.552 0.0211279L301.979 148.448C301.993 149.297 302 150.148 302 151ZM296.419 191.816C295.911 193.629 295.37 195.429 294.797 197.215L104.785 7.20337C106.571 6.63 108.371 6.08896 110.184 5.58094L296.419 191.816ZM286.262 83.8035C288.298 87.8949 290.154 92.0917 291.82 96.3836L205.616 10.1799C209.908 11.8456 214.105 13.7019 218.196 15.7384L286.262 83.8035ZM290.319 209.336C289.632 210.976 288.916 212.601 288.173 214.211L87.7889 13.8272C89.3989 13.0841 91.0242 12.3685 92.6642 11.681L290.319 209.336ZM300.338 128.522C299.909 125.644 299.398 122.793 298.809 119.971L182.029 3.19133C179.207 2.60185 176.356 2.09117 173.478 1.66168L300.338 128.522ZM299.788 176.898C300.136 174.88 300.445 172.848 300.713 170.803L131.197 1.28683C129.152 1.55472 127.12 1.86353 125.102 2.21242L299.788 176.898ZM62.2739 28.8038C63.3051 28.0538 64.3461 27.3165 65.3967 26.5922L275.408 236.603C274.684 237.654 273.946 238.695 273.196 239.726L62.2739 28.8038ZM70.4781 23.2379C69.0478 24.1413 67.6337 25.068 66.2363 26.0176L275.982 235.764C276.932 234.366 277.859 232.952 278.762 231.522L70.4781 23.2379ZM75.7391 20.0631C74.2592 20.9156 72.7951 21.7924 71.3474 22.693L279.307 230.653C280.208 229.205 281.084 227.741 281.937 226.261L75.7391 20.0631ZM221.09 17.218C248.245 31.474 270.526 53.7551 284.782 80.9097L221.09 17.218ZM219.703 285.501C218.147 286.297 216.576 287.067 214.99 287.81L14.1895 87.0099C14.9326 85.4239 15.7025 83.8529 16.4986 82.2975L219.703 285.501ZM203.085 292.777C204.785 292.152 206.471 291.497 208.143 290.813L11.1868 93.8572C10.5031 95.5285 9.84839 97.2148 9.22344 98.9154L203.085 292.777ZM11.6004 92.8566L209.143 290.4C210.785 289.714 212.412 289 214.024 288.259L13.7411 87.9758C12.9998 89.5876 12.2861 91.2148 11.6004 92.8566ZM196.801 294.929C198.564 294.368 200.313 293.776 202.047 293.153L8.84657 99.9527C8.22372 101.687 7.6317 103.436 7.07118 105.199L196.801 294.929ZM189.159 297.137C187.739 297.507 186.31 297.857 184.874 298.186L3.81427 117.126C4.1435 115.69 4.49322 114.261 4.86311 112.841L189.159 297.137ZM190.278 296.841L5.15894 111.722C5.65048 109.893 6.17553 108.077 6.73339 106.275L195.725 295.267C193.923 295.824 192.107 296.35 190.278 296.841ZM177.869 299.617C179.832 299.264 181.783 298.873 183.719 298.446L3.55447 118.281C3.12668 120.217 2.73606 122.168 2.38341 124.131L177.869 299.617ZM169.304 300.902C167.188 301.158 165.059 301.369 162.917 301.537L0.463374 139.083C0.630592 136.941 0.842497 134.812 1.09816 132.696L169.304 300.902ZM170.561 300.745L1.25539 131.439C1.5203 129.391 1.82624 127.356 2.17236 125.334L176.666 299.828C174.644 300.174 172.609 300.48 170.561 300.745ZM153.51 301.98C152.675 301.993 151.838 302 151 302C149.475 302 147.956 301.977 146.442 301.933L0.0674872 155.558C0.0226013 154.044 0 152.525 0 151C0 150.162 0.00683249 149.325 0.0204448 148.49L153.51 301.98ZM0.117922 157.023L144.977 301.882C143.081 301.808 141.193 301.698 139.315 301.555L0.445397 162.685C0.301681 160.807 0.192313 158.919 0.117922 157.023ZM154.896 301.951L0.0492748 147.104C0.106188 144.857 0.212204 142.622 0.366289 140.4L161.6 301.634C159.378 301.788 157.143 301.894 154.896 301.951ZM0.571126 164.225L137.775 301.429C135.115 301.198 132.475 300.898 129.856 300.531L1.46863 172.144C1.10169 169.525 0.801925 166.885 0.571126 164.225ZM3.65763 184.183C4.37455 187.38 5.19286 190.539 6.10901 193.656L108.344 295.891C111.461 296.807 114.62 297.625 117.817 298.342L3.65763 184.183ZM3.26392 182.375L119.625 298.736C122.455 299.334 125.315 299.853 128.201 300.29L1.70997 173.799C2.14707 176.685 2.66586 179.545 3.26392 182.375ZM6.71977 195.681C7.85595 199.354 9.12852 202.967 10.5316 206.514L95.486 291.468C99.0332 292.871 102.646 294.144 106.319 295.28L6.71977 195.681ZM16.0116 218.743C14.393 215.523 12.8861 212.238 11.496 208.893L93.1073 290.504C89.7615 289.114 86.4765 287.607 83.2573 285.988L16.0116 218.743ZM17.523 221.668C31.6887 248.369 53.6314 270.311 80.3317 284.477L17.523 221.668ZM220.635 285.02L16.9801 81.3648C17.587 80.1992 18.2086 79.0425 18.8447 77.895L224.105 283.155C222.957 283.791 221.801 284.413 220.635 285.02ZM225.012 282.648L19.3517 76.9878C20.1921 75.4962 21.0571 74.0203 21.9462 72.5607L229.439 280.054C227.98 280.943 226.504 281.808 225.012 282.648ZM230.316 279.516L22.484 71.6843C23.3757 70.2426 24.291 68.817 25.2293 67.4081L234.592 276.771C233.183 277.709 231.757 278.624 230.316 279.516ZM36.1228 52.9944C35.0435 54.2583 33.9846 55.5403 32.9467 56.8398L245.16 269.053C246.46 268.015 247.742 266.957 249.006 265.877L36.1228 52.9944ZM244.372 269.679L32.3212 57.6285C31.288 58.9399 30.2761 60.2688 29.286 61.6148L240.385 272.714C241.731 271.724 243.06 270.712 244.372 269.679ZM239.568 273.311L28.689 62.432C27.7027 63.7916 26.7386 65.1684 25.7971 66.5616L235.438 276.203C236.832 275.261 238.208 274.297 239.568 273.311ZM249.766 265.223L36.7766 52.2339C37.601 51.2813 38.4371 50.3391 39.2847 49.4076L252.592 262.715C251.661 263.563 250.719 264.399 249.766 265.223ZM253.331 262.039L39.9608 48.6695C41.0832 47.4522 42.2253 46.2535 43.3866 45.0738L256.926 258.613C255.747 259.775 254.548 260.917 253.331 262.039ZM257.637 257.91L44.0905 44.3634C45.2594 43.1915 46.4475 42.0388 47.6542 40.9056L261.094 254.346C259.961 255.553 258.808 256.741 257.637 257.91ZM61.4576 29.4017C60.1132 30.3934 58.7857 31.4068 57.4759 32.4415L269.558 244.524C270.593 243.214 271.607 241.887 272.598 240.542L61.4576 29.4017ZM268.932 245.312L56.6882 33.068C55.3901 34.1074 54.1096 35.1678 52.8472 36.2486L265.751 249.153C266.832 247.89 267.893 246.61 268.932 245.312ZM265.097 249.912L52.0877 36.9033C50.8355 37.9898 49.6014 39.0965 48.3858 40.223L261.777 253.614C262.903 252.399 264.01 251.165 265.097 249.912Z" fill="url(#paint0_linear_3_115)" fill-opacity="0.4"/>
<defs>
<linearGradient id="paint0_linear_3_115" x1="62.816" y1="30.2" x2="143.141" y2="309.461" gradientUnits="userSpaceOnUse">
<stop stop-color="#91A6DC"/>
<stop offset="0.473958" stop-color="#E76868"/>
<stop offset="1" stop-color="#333333"/>
</linearGradient>
</defs>
</svg>
